<svg xmlns="http://www.w3.org/2000/svg" version="1.1" viewBox="0 0 48 48">
	<g>
		<path d="m 48.000367,1.45 -25.4,25.4 -6.8,-6.7 -1.1,1.1 11.3,11.3 1.1,-1.2 -3.4,-3.3 24.3,-24.3 z m 0,3.4 -23.2,23.2 2.8,2.8 1.2,-1.1 -1.8,-1.7 21,-21 z m 0,3.2 -19.8,20 1.1,1.1 18.7,-18.7 z m -23.5,1 C 12.417343,9.0322911 5.1457761,22.438129 11.74901,32.556754 18.352244,42.675379 33.55124,41.417328 38.400367,30.35 l -1.5,-0.6 C 32.014839,40.965567 15.963309,40.53103 11.68973,29.070068 7.4161512,17.609106 19.264418,6.7712549 30.300367,12.05 l 0.7,-1.5 C 28.965715,9.602953 26.688603,9.0277449 24.444486,9.053211 Z m -5.3,7.6 -1.1,1.1 6.2,6.2 1.1,-1.1 z m -1.7,1.7 -1.1,1.1 6.2,6.2 1.1,-1.1 z" />
	</g>
</svg>
