<svg xmlns="http://www.w3.org/2000/svg" version="1.1" viewBox="0 0 48 48">
	<g>
		<path d="M0 0h48v48H0z" fill="#9f42c6" />
		<path d="m 48.000367,1.4 -25.4,25.4 -6.8,-6.7 -1.1,1.1 11.3,11.3 1.1,-1.2 -3.4,-3.3 24.3,-24.3 z m 0,3.4 -23.2,23.2 2.8,2.8 1.2,-1.1 -1.8,-1.7 21,-21 z m 0,3.2 -19.8,20 1.1,1.1 18.7,-18.7 z m -23.5,1 C 12.417343,8.9822911 5.1457761,22.388129 11.74901,32.506754 18.352244,42.625379 33.55124,41.367328 38.400367,30.3 l -1.5,-0.6 C 32.014839,40.915567 15.963309,40.48103 11.68973,29.020068 7.4161512,17.559106 19.264418,6.7212549 30.300367,12 l 0.7,-1.5 C 28.965715,9.552953 26.688603,8.9777449 24.444486,9.003211 Z m -5.3,7.6 -1.1,1.1 6.2,6.2 1.1,-1.1 z m -1.7,1.7 -1.1,1.1 6.2,6.2 1.1,-1.1 z" fill="#ffffff" />
	</g>
</svg>
