<svg
  xmlns="http://www.w3.org/2000/svg"
  viewBox="0 0 1311 491"
>
  <path
    d="M0.388672 181.126V109.302H51.3774L69.4548 0H132.128V109.302H228.269V181.126H132.128V386.444C132.128 399.982 135.136 409.383 141.028 414.773C147.044 420.162 158.075 422.795 174.495 422.795C185.024 422.795 194.676 422.795 203.576 422.669C212.475 422.544 220.498 422.419 227.768 422.168V492.488C215.358 494.869 202.072 496.123 187.657 496.499C173.242 496.875 159.704 497 146.919 497L146.794 496.875C116.46 496.875 92.8946 489.103 76.0981 473.56C59.3017 458.017 50.9034 435.831 50.9034 406.876L50.5274 213.34C50.5274 205.819 52.1569 199.051 55.6666 192.909C59.051 186.767 63.8142 182.881 69.8308 181.251L69.7881 181.126H0.388672ZM260.484 491.27V109.339H331.18L337.361 208.669C338.763 202.201 340.421 195.704 342.335 189.185C346.973 173.265 353.491 158.725 361.89 145.439C370.288 132.152 381.193 121.497 394.73 113.35C408.268 105.328 424.563 101.316 443.741 101.316C448.63 101.316 453.393 101.567 457.905 102.069C462.418 102.57 466.68 103.322 470.691 104.575V192.82C462.794 190.062 454.396 188.307 445.496 187.555C436.596 186.803 428.323 186.552 420.677 186.552C411.527 186.552 401.75 188.307 391.221 191.942C380.692 195.577 371.04 200.967 362.14 208.237C353.241 215.507 346.848 224.407 342.837 235.187V491.396H260.233L260.484 491.27ZM533.739 482.351C551.789 491.126 572.346 495.513 595.159 495.513H595.41C628.251 495.513 653.821 486.989 671.871 469.942C689.921 452.895 701.202 431.586 705.59 405.89L704.587 491.251H785.436V241.309C785.436 213.733 781.55 190.92 773.904 172.995C766.258 155.071 755.728 140.907 742.442 130.503C729.155 120.099 713.863 112.829 696.565 108.442C679.267 104.055 661.092 101.924 641.914 101.924C609.323 101.924 580.995 106.938 557.054 116.965C533.113 126.993 515.188 142.662 503.155 163.72C491.121 184.778 486.358 211.853 488.99 244.694H564.199C564.7 224.638 567.583 209.346 573.098 198.692C578.613 188.037 586.636 180.767 597.415 176.756C608.07 172.87 621.357 170.865 637.276 170.865C661.969 170.865 679.517 177.383 689.921 190.293C700.325 203.329 705.464 222.883 705.464 248.956V264.749C697.693 265.251 686.662 266.128 672.373 267.382C658.083 268.635 642.54 270.265 625.995 272.27C609.449 274.276 593.78 276.908 579.115 280.167C557.68 284.679 539.255 291.323 523.837 300.348C508.419 309.373 496.637 321.155 488.489 335.696C480.342 350.361 476.205 368.787 476.205 391.224C476.205 411.781 481.219 429.831 491.372 445.625C501.525 461.293 515.689 473.577 533.739 482.351ZM654.699 426.697C642.164 430.834 629.755 432.839 617.596 432.839H617.722C608.571 433.09 600.048 431.21 592.151 427.073C584.129 423.062 577.736 417.296 572.847 409.775C567.959 402.38 565.452 393.48 565.452 383.202C565.452 364.901 571.343 351.489 583.001 342.715C594.658 333.941 613.585 327.047 639.657 321.907C648.682 319.777 659.587 317.646 672.373 315.389C685.158 313.133 696.189 311.629 705.464 310.626V380.695C703.083 391.35 697.191 400.751 687.79 408.647C678.264 416.67 667.234 422.561 654.699 426.697ZM804.979 491.264V109.207H888.585V292.929L917.791 242.075L1012.18 109.082H1109.95L1109.79 109.302H1133.87L1151.95 0H1214.62V109.302H1310.89V181.126H1214.62V386.444C1214.62 399.982 1217.63 409.383 1223.52 414.773C1229.54 420.162 1240.57 422.795 1256.99 422.795C1267.52 422.795 1277.17 422.795 1286.07 422.669C1294.97 422.544 1302.99 422.419 1310.26 422.168V492.488C1297.85 494.869 1284.56 496.123 1270.15 496.499C1255.73 496.875 1242.2 497 1229.41 497L1229.29 496.875C1198.95 496.875 1175.39 489.103 1158.59 473.56C1141.79 458.017 1133.4 435.831 1133.4 406.876L1133.02 213.34C1133.02 205.819 1134.65 199.051 1138.16 192.909C1141.54 186.767 1146.31 182.881 1152.32 181.251L1152.28 181.126H1083.01V145.874L989.471 273.609L1122.61 491.139H1023.08V491.264L931.001 331.443L888.585 384.624V491.264H804.979Z"
  />
</svg>